<svg width="29" height="30" viewBox="0 0 29 30" fill="none" xmlns="http://www.w3.org/2000/svg">
<path d="M25.9284 0.626678H3.56882C2.76016 0.626678 1.98462 0.947916 1.41282 1.51972C0.841013 2.09153 0.519775 2.86706 0.519775 3.67572L0.519775 26.0353C0.519775 26.844 0.841013 27.6195 1.41282 28.1913C1.98462 28.7631 2.76016 29.0844 3.56882 29.0844H12.2872V19.4094H8.2853V14.8555H12.2872V11.3847C12.2872 7.43684 14.6375 5.25614 18.2372 5.25614C19.9612 5.25614 21.764 5.56358 21.764 5.56358V9.4384H19.7776C17.8205 9.4384 17.2101 10.6529 17.2101 11.8986V14.8555H21.5791L20.8804 19.4094H17.2101V29.0844H25.9284C26.7371 29.0844 27.5126 28.7631 28.0844 28.1913C28.6562 27.6195 28.9775 26.844 28.9775 26.0353V3.67572C28.9775 2.86706 28.6562 2.09153 28.0844 1.51972C27.5126 0.947916 26.7371 0.626678 25.9284 0.626678Z" fill="#FF02F5"/>
</svg>
