<svg width="29" height="29" viewBox="0 0 29 29" fill="none" xmlns="http://www.w3.org/2000/svg">
<path d="M26.9448 0.0843811H2.54612C1.42814 0.0843811 0.519775 1.00545 0.519775 2.13613V26.4903C0.519775 27.621 1.42814 28.5421 2.54612 28.5421H26.9448C28.0628 28.5421 28.9775 27.621 28.9775 26.4903V2.13613C28.9775 1.00545 28.0628 0.0843811 26.9448 0.0843811ZM9.12061 24.4767H4.90277V10.8958H9.12696V24.4767H9.12061ZM7.01169 9.04094C5.65868 9.04094 4.56611 7.94201 4.56611 6.59535C4.56611 5.24869 5.65868 4.14977 7.01169 4.14977C8.35835 4.14977 9.45727 5.24869 9.45727 6.59535C9.45727 7.94836 8.3647 9.04094 7.01169 9.04094ZM24.9312 24.4767H20.7133V17.8704C20.7133 16.2951 20.6816 14.2688 18.5218 14.2688C16.324 14.2688 15.9873 15.9839 15.9873 17.7561V24.4767H11.7695V10.8958H15.8158V12.7506H15.873C16.4383 11.6834 17.8167 10.5591 19.8685 10.5591C24.1371 10.5591 24.9312 13.3731 24.9312 17.032V24.4767Z" fill="#FF02F5"/>
</svg>
