<svg width="30" height="30" viewBox="0 0 30 30" fill="none" xmlns="http://www.w3.org/2000/svg">
<path d="M14.752 7.21743C10.5668 7.21743 7.19092 10.6088 7.19092 14.8133C7.19092 19.0179 10.5668 22.4092 14.752 22.4092C18.9372 22.4092 22.3131 19.0179 22.3131 14.8133C22.3131 10.6088 18.9372 7.21743 14.752 7.21743ZM14.752 19.7517C12.0474 19.7517 9.83631 17.537 9.83631 14.8133C9.83631 12.0897 12.0408 9.87501 14.752 9.87501C17.4632 9.87501 19.6677 12.0897 19.6677 14.8133C19.6677 17.537 17.4566 19.7517 14.752 19.7517ZM24.386 6.90672C24.386 7.89174 23.5963 8.67844 22.6224 8.67844C21.6419 8.67844 20.8588 7.88513 20.8588 6.90672C20.8588 5.92831 21.6484 5.135 22.6224 5.135C23.5963 5.135 24.386 5.92831 24.386 6.90672ZM29.3938 8.70488C29.2819 6.33157 28.7423 4.22931 27.0116 2.49726C25.2875 0.765209 23.1949 0.223117 20.8324 0.104121C18.3976 -0.0347071 11.0998 -0.0347071 8.66497 0.104121C6.30912 0.216506 4.2165 0.758599 2.48581 2.49065C0.755121 4.2227 0.222094 6.32496 0.103644 8.69827C-0.034548 11.1443 -0.034548 18.4758 0.103644 20.9218C0.215514 23.2951 0.755121 25.3974 2.48581 27.1294C4.2165 28.8615 6.30254 29.4036 8.66497 29.5226C11.0998 29.6614 18.3976 29.6614 20.8324 29.5226C23.1949 29.4102 25.2875 28.8681 27.0116 27.1294C28.7357 25.3974 29.2753 23.2951 29.3938 20.9218C29.532 18.4758 29.532 11.1509 29.3938 8.70488ZM26.2482 23.5463C25.735 24.842 24.7413 25.8403 23.4449 26.3625C21.5037 27.136 16.8973 26.9575 14.752 26.9575C12.6067 26.9575 7.99375 27.1294 6.05906 26.3625C4.76927 25.8469 3.7756 24.8487 3.25574 23.5463C2.48581 21.5961 2.66349 16.9685 2.66349 14.8133C2.66349 12.6582 2.49239 8.02396 3.25574 6.08036C3.76902 4.78463 4.76269 3.78638 6.05906 3.26412C8.00033 2.49065 12.6067 2.66914 14.752 2.66914C16.8973 2.66914 21.5102 2.49726 23.4449 3.26412C24.7347 3.77977 25.7284 4.77802 26.2482 6.08036C27.0182 8.03057 26.8405 12.6582 26.8405 14.8133C26.8405 16.9685 27.0182 21.6027 26.2482 23.5463Z" fill="#FF02F5"/>
</svg>
