<svg id="Livello_1" data-name="Livello 1" xmlns="http://www.w3.org/2000/svg" viewBox="0 0 61.75 56.51"><defs><style>.cls-1{fill:#fff;}</style></defs><path class="cls-1" d="M33.93,3.75c1.44,3.54,2.89,7.08,4.3,10.64.26.64.68.7,1.25.7H60.94c2.25,0,2.25,0,1.45,2.07-.92,2.38-1.88,4.74-2.73,7.15a1.56,1.56,0,0,1-1.76,1.17c-4.81,0-9.62,0-14.42,0-1.13,0-1.14,0-.73,1.08q3.8,9.69,7.58,19.39a1.62,1.62,0,0,1,.11,1.28c-1.65,4.14-3.27,8.28-4.91,12.41a2.65,2.65,0,0,1-.23.39c-.41-.17-.45-.56-.58-.87q-11.51-27.21-23-54.42c-.14-.33-.29-.65-.44-1Z" transform="translate(-1.12 -3.75)"/><path class="cls-1" d="M19,3.75q3.7,8.81,7.41,17.62,8,19,16,37.93c.29.69.2,1-.6,1-3.59,0-7.18,0-10.77,0a1.15,1.15,0,0,1-1.21-.91C28.58,56.18,27.26,53,26,49.86a1.41,1.41,0,0,0-1.58-1c-7.41,0-14.83,0-22.24,0-1.24,0-1.25,0-.81-1.16,1.05-2.74,2.12-5.48,3.15-8.22a1.18,1.18,0,0,1,1.31-.9c5,0,9.9,0,14.86,0,1.09,0,1.09,0,.7-1q-3.77-9.69-7.57-19.38a2.41,2.41,0,0,1,0-2c1.66-4.16,3.29-8.33,4.93-12.49Z" transform="translate(-1.12 -3.75)"/></svg>